<svg width="158" height="79" viewBox="0 0 158 79" fill="none" xmlns="http://www.w3.org/2000/svg">
<path d="M46.7443 60.5004C45.961 63.77 43.4152 65.6077 40.0004 66.2282C37.0018 66.7651 34.505 66.8964 32.1061 65.011C29.1809 62.6125 29.1442 58.6389 31.7756 56.133C33.8563 54.1999 36.7815 53.8061 41.1754 53.0543C41.9098 52.923 42.5462 52.756 43.0848 52.1713C43.8681 51.3121 43.6233 51.682 43.6233 32.6969C43.6233 31.3604 42.9501 30.9905 41.5426 31.2292C40.539 31.3962 18.8142 35.3579 18.8142 35.3579C17.5658 35.6204 17.1741 35.9784 17.1741 37.3507C17.1741 65.3571 17.3088 64.0683 16.8681 65.9298C16.3541 68.1016 14.9833 69.7364 13.1719 70.6433C11.1157 71.7531 7.39491 72.2423 5.41214 71.8843C0.12475 70.9178 -1.73563 64.9633 1.85049 61.5505C3.93118 59.6174 6.85637 59.2236 11.2503 58.4718C11.9846 58.3406 12.6211 58.1735 13.1596 57.5888C14.3958 56.2165 13.3799 26.9691 13.7961 25.3463C13.894 24.7258 14.1632 24.2007 14.6651 23.8069C15.1791 23.3893 16.1093 23.1506 16.3051 23.1506C41.2733 18.5923 44.3209 18.0076 44.7493 18.0076C46.1568 17.9121 46.9646 18.7236 46.9646 20.1078C46.9891 61.2164 47.0993 59.0088 46.7443 60.5004Z" fill="white"/>
<path d="M79.768 16.952C81.9867 16.952 83.7467 17.624 85.048 18.968C86.3707 20.312 87.032 22.1787 87.032 24.568V35H81.592V25.304C81.592 24.152 81.2827 23.2667 80.664 22.648C80.0667 22.008 79.2347 21.688 78.168 21.688C77.1013 21.688 76.2587 22.008 75.64 22.648C75.0427 23.2667 74.744 24.152 74.744 25.304V35H69.304V25.304C69.304 24.152 68.9947 23.2667 68.376 22.648C67.7787 22.008 66.9467 21.688 65.88 21.688C64.8133 21.688 63.9707 22.008 63.352 22.648C62.7547 23.2667 62.456 24.152 62.456 25.304V35H56.984V17.144H62.456V19.384C63.0107 18.6373 63.736 18.0507 64.632 17.624C65.528 17.176 66.5413 16.952 67.672 16.952C69.016 16.952 70.2107 17.24 71.256 17.816C72.3227 18.392 73.1547 19.2133 73.752 20.28C74.3707 19.2987 75.2133 18.4987 76.28 17.88C77.3467 17.2613 78.5093 16.952 79.768 16.952ZM108.491 17.144V35H103.019V32.568C102.464 33.3573 101.707 33.9973 100.747 34.488C99.8083 34.9573 98.763 35.192 97.611 35.192C96.2457 35.192 95.0403 34.8933 93.995 34.296C92.9497 33.6773 92.139 32.792 91.563 31.64C90.987 30.488 90.699 29.1333 90.699 27.576V17.144H96.139V26.84C96.139 28.0347 96.4483 28.9627 97.067 29.624C97.6857 30.2853 98.5177 30.616 99.563 30.616C100.63 30.616 101.472 30.2853 102.091 29.624C102.71 28.9627 103.019 28.0347 103.019 26.84V17.144H108.491ZM119.686 35.256C118.128 35.256 116.742 34.9893 115.526 34.456C114.31 33.9227 113.35 33.1973 112.646 32.28C111.942 31.3413 111.547 30.296 111.462 29.144H116.87C116.934 29.7627 117.222 30.264 117.734 30.648C118.246 31.032 118.875 31.224 119.622 31.224C120.304 31.224 120.827 31.096 121.19 30.84C121.574 30.5627 121.766 30.2107 121.766 29.784C121.766 29.272 121.499 28.8987 120.966 28.664C120.432 28.408 119.568 28.1307 118.374 27.832C117.094 27.5333 116.027 27.224 115.174 26.904C114.32 26.5627 113.584 26.04 112.966 25.336C112.347 24.6107 112.038 23.64 112.038 22.424C112.038 21.4 112.315 20.472 112.87 19.64C113.446 18.7867 114.278 18.1147 115.366 17.624C116.475 17.1333 117.787 16.888 119.302 16.888C121.542 16.888 123.302 17.4427 124.582 18.552C125.883 19.6613 126.63 21.1333 126.822 22.968H121.766C121.68 22.3493 121.403 21.8587 120.934 21.496C120.486 21.1333 119.888 20.952 119.142 20.952C118.502 20.952 118.011 21.08 117.67 21.336C117.328 21.5707 117.158 21.9013 117.158 22.328C117.158 22.84 117.424 23.224 117.958 23.48C118.512 23.736 119.366 23.992 120.518 24.248C121.84 24.5893 122.918 24.9307 123.75 25.272C124.582 25.592 125.307 26.1253 125.926 26.872C126.566 27.5973 126.896 28.5787 126.918 29.816C126.918 30.8613 126.619 31.8 126.022 32.632C125.446 33.4427 124.603 34.0827 123.494 34.552C122.406 35.0213 121.136 35.256 119.686 35.256ZM133.017 15.288C132.057 15.288 131.268 15.0107 130.649 14.456C130.052 13.88 129.753 13.176 129.753 12.344C129.753 11.4907 130.052 10.7867 130.649 10.232C131.268 9.656 132.057 9.368 133.017 9.368C133.956 9.368 134.724 9.656 135.321 10.232C135.94 10.7867 136.249 11.4907 136.249 12.344C136.249 13.176 135.94 13.88 135.321 14.456C134.724 15.0107 133.956 15.288 133.017 15.288ZM135.737 17.144V35H130.265V17.144H135.737ZM138.615 26.072C138.615 24.216 138.988 22.5947 139.735 21.208C140.503 19.8213 141.559 18.7547 142.903 18.008C144.268 17.2613 145.825 16.888 147.575 16.888C149.815 16.888 151.681 17.4747 153.175 18.648C154.689 19.8213 155.681 21.4747 156.151 23.608H150.327C149.836 22.2427 148.887 21.56 147.479 21.56C146.476 21.56 145.676 21.9547 145.079 22.744C144.481 23.512 144.183 24.6213 144.183 26.072C144.183 27.5227 144.481 28.6427 145.079 29.432C145.676 30.2 146.476 30.584 147.479 30.584C148.887 30.584 149.836 29.9013 150.327 28.536H156.151C155.681 30.6267 154.689 32.2693 153.175 33.464C151.66 34.6587 149.793 35.256 147.575 35.256C145.825 35.256 144.268 34.8827 142.903 34.136C141.559 33.3893 140.503 32.3227 139.735 30.936C138.988 29.5493 138.615 27.928 138.615 26.072Z" fill="white"/>
<path d="M65.112 66.224C63.4693 66.224 61.9973 65.9573 60.696 65.424C59.3947 64.8907 58.3493 64.1013 57.56 63.056C56.792 62.0107 56.3867 60.752 56.344 59.28H62.168C62.2533 60.112 62.5413 60.752 63.032 61.2C63.5227 61.6267 64.1627 61.84 64.952 61.84C65.7627 61.84 66.4027 61.6587 66.872 61.296C67.3413 60.912 67.576 60.3893 67.576 59.728C67.576 59.1733 67.384 58.7147 67 58.352C66.6373 57.9893 66.1787 57.6907 65.624 57.456C65.0907 57.2213 64.3227 56.9547 63.32 56.656C61.8693 56.208 60.6853 55.76 59.768 55.312C58.8507 54.864 58.0613 54.2027 57.4 53.328C56.7387 52.4533 56.408 51.312 56.408 49.904C56.408 47.8133 57.1653 46.1813 58.68 45.008C60.1947 43.8133 62.168 43.216 64.6 43.216C67.0747 43.216 69.0693 43.8133 70.584 45.008C72.0987 46.1813 72.9093 47.824 73.016 49.936H67.096C67.0533 49.2107 66.7867 48.6453 66.296 48.24C65.8053 47.8133 65.176 47.6 64.408 47.6C63.7467 47.6 63.2133 47.7813 62.808 48.144C62.4027 48.4853 62.2 48.9867 62.2 49.648C62.2 50.3733 62.5413 50.9387 63.224 51.344C63.9067 51.7493 64.9733 52.1867 66.424 52.656C67.8747 53.1467 69.048 53.616 69.944 54.064C70.8613 54.512 71.6507 55.1627 72.312 56.016C72.9733 56.8693 73.304 57.968 73.304 59.312C73.304 60.592 72.9733 61.7547 72.312 62.8C71.672 63.8453 70.7333 64.6773 69.496 65.296C68.2587 65.9147 66.7973 66.224 65.112 66.224ZM82.1435 47.92V52.464H89.4715V56.688H82.1435V61.616H90.4315V66H76.6715V43.536H90.4315V47.92H82.1435ZM114.08 66H108.608L99.456 52.144V66H93.984V43.536H99.456L108.608 57.456V43.536H114.08V66ZM126.175 66.224C124.532 66.224 123.06 65.9573 121.759 65.424C120.457 64.8907 119.412 64.1013 118.623 63.056C117.855 62.0107 117.449 60.752 117.407 59.28H123.231C123.316 60.112 123.604 60.752 124.095 61.2C124.585 61.6267 125.225 61.84 126.015 61.84C126.825 61.84 127.465 61.6587 127.935 61.296C128.404 60.912 128.639 60.3893 128.639 59.728C128.639 59.1733 128.447 58.7147 128.063 58.352C127.7 57.9893 127.241 57.6907 126.687 57.456C126.153 57.2213 125.385 56.9547 124.383 56.656C122.932 56.208 121.748 55.76 120.831 55.312C119.913 54.864 119.124 54.2027 118.463 53.328C117.801 52.4533 117.471 51.312 117.471 49.904C117.471 47.8133 118.228 46.1813 119.743 45.008C121.257 43.8133 123.231 43.216 125.663 43.216C128.137 43.216 130.132 43.8133 131.647 45.008C133.161 46.1813 133.972 47.824 134.079 49.936H128.159C128.116 49.2107 127.849 48.6453 127.359 48.24C126.868 47.8133 126.239 47.6 125.47 47.6C124.809 47.6 124.276 47.7813 123.871 48.144C123.465 48.4853 123.263 48.9867 123.263 49.648C123.263 50.3733 123.604 50.9387 124.286 51.344C124.969 51.7493 126.036 52.1867 127.487 52.656C128.937 53.1467 130.111 53.616 131.007 54.064C131.924 54.512 132.713 55.1627 133.375 56.016C134.036 56.8693 134.367 57.968 134.367 59.312C134.367 60.592 134.036 61.7547 133.375 62.8C132.735 63.8453 131.796 64.6773 130.559 65.296C129.321 65.9147 127.86 66.224 126.175 66.224ZM143.206 47.92V52.464H150.534V56.688H143.206V61.616H151.494V66H137.734V43.536H151.494V47.92H143.206Z" fill="#FFE204"/>
</svg>
